<?xml version="1.0" encoding="utf-8"?>
<!-- Generator: Adobe Illustrator 19.1.0, SVG Export Plug-In . SVG Version: 6.00 Build 0)  -->
<svg version="1.1" id="Layer_1" xmlns="http://www.w3.org/2000/svg" xmlns:xlink="http://www.w3.org/1999/xlink" x="0px" y="0px"
	 viewBox="0 0 150 30" style="enable-background:new 0 0 150 30;" xml:space="preserve">
<style type="text/css">
	.st0{fill:#f1f1f1;}
	.st1{fill:#E88024;}
</style>
<g>
	<g>
		<g>
			<path class="st0" d="M35.8,7.8c-0.6,0-1.1,0.1-1.6,0.2c-0.5,0.1-0.9,0.3-1.3,0.6c-0.4,0.3-0.7,0.5-1,0.9
				c-0.1,0.1-0.2,0.2-0.2,0.3V8.1h-4v15.1h4v-8.4c0-1,0.3-1.8,0.8-2.4c0.5-0.6,1.2-0.8,2.1-0.8c0.9,0,1.5,0.3,2,0.8
				c0.5,0.5,0.7,1.3,0.7,2.4v8.5h4v-9.5c0-1.8-0.5-3.2-1.4-4.2C38.8,8.4,37.5,7.8,35.8,7.8z"/>
			<path class="st0" d="M50.4,7.9c-1.2,0-2.3,0.1-3.1,0.3c-0.9,0.2-1.7,0.5-2.5,0.9l-0.3,0.1l1.1,3.2l0.3-0.1
				c0.6-0.3,1.3-0.5,1.9-0.6c0.6-0.2,1.3-0.2,2.1-0.2c1.1,0,1.9,0.2,2.4,0.7c0.5,0.4,0.8,1.1,0.8,1.9c-0.4-0.1-0.9-0.2-1.4-0.3
				c-0.6-0.1-1.4-0.2-2.3-0.2c-0.9,0-1.7,0.1-2.4,0.3c-0.8,0.2-1.4,0.5-2,0.9c-0.6,0.4-1,1-1.3,1.6c-0.3,0.6-0.5,1.4-0.5,2.2v0.1
				c0,0.8,0.2,1.5,0.5,2.1c0.3,0.6,0.7,1.1,1.2,1.5c0.5,0.4,1.1,0.7,1.7,0.9c0.6,0.2,1.3,0.3,2.1,0.3c1.1,0,2.1-0.2,2.9-0.6
				c0.5-0.3,1-0.6,1.4-1v1.3H57v-8.9c0-2-0.6-3.6-1.6-4.7C54.3,8.5,52.6,7.9,50.4,7.9z M49.7,20.4c-0.7,0-1.3-0.2-1.8-0.5
				c-0.4-0.3-0.7-0.7-0.7-1.3v-0.1c0-0.6,0.2-1,0.7-1.4c0.5-0.4,1.3-0.5,2.3-0.5c0.6,0,1.2,0.1,1.8,0.2c0.5,0.1,0.9,0.2,1.2,0.3v0.6
				c0,0.4-0.1,0.8-0.2,1.1c-0.2,0.3-0.4,0.6-0.7,0.9c-0.3,0.2-0.7,0.4-1.1,0.6C50.7,20.3,50.2,20.4,49.7,20.4z"/>
			<path class="st0" d="M77.5,18.2L73.6,8.1h-4.2l6.1,14.7c-0.2,0.5-0.5,0.9-0.7,1.1c-0.3,0.2-0.6,0.3-1,0.3c-0.3,0-0.6,0-0.9-0.1
				c-0.3-0.1-0.6-0.2-0.9-0.4l-0.3-0.2l-1.4,3l0.3,0.1c0.5,0.3,1.1,0.5,1.6,0.7c0.6,0.2,1.2,0.2,1.9,0.2c0.6,0,1.2-0.1,1.7-0.2
				c0.5-0.2,1-0.4,1.4-0.8c0.4-0.3,0.8-0.8,1.1-1.3c0.3-0.5,0.6-1.2,0.9-1.9l5.9-15.3H81L77.5,18.2z"/>
			<path class="st1" d="M103.3,18.3c-0.5,0.5-1.1,0.9-1.6,1.2c-0.5,0.3-1.2,0.5-1.9,0.5c-0.6,0-1.1-0.1-1.6-0.3
				c-0.5-0.2-0.9-0.5-1.3-0.9c-0.4-0.4-0.6-0.8-0.8-1.4c-0.2-0.5-0.3-1.1-0.3-1.7v-0.1c0-0.6,0.1-1.1,0.3-1.7c0.2-0.5,0.5-1,0.8-1.4
				c0.3-0.4,0.7-0.7,1.2-0.9c0.5-0.2,1-0.3,1.5-0.3c0.8,0,1.4,0.2,2,0.5c0.5,0.3,1.1,0.7,1.6,1.2l0.2,0.2l2.5-2.7l-0.2-0.2
				c-0.7-0.8-1.5-1.4-2.5-1.9c-0.9-0.5-2.1-0.7-3.5-0.7c-1.1,0-2.2,0.2-3.1,0.6c-1,0.4-1.8,1-2.5,1.7c-0.7,0.7-1.2,1.6-1.6,2.5
				c-0.4,1-0.6,2-0.6,3v0.1c0,1.1,0.2,2.1,0.6,3c0.4,0.9,0.9,1.8,1.6,2.5c0.7,0.7,1.5,1.3,2.5,1.7s2,0.6,3.1,0.6
				c1.4,0,2.7-0.3,3.6-0.8c0.9-0.5,1.8-1.2,2.5-2l0.2-0.2l-2.4-2.4L103.3,18.3z"/>
			<path class="st1" d="M120.9,10.1c-0.7-0.7-1.6-1.3-2.5-1.7c-1-0.4-2-0.6-3.2-0.6S113,8,112,8.4s-1.8,1-2.5,1.7
				c-0.7,0.7-1.3,1.5-1.7,2.5c-0.4,0.9-0.6,2-0.6,3v0.1c0,1.1,0.2,2.1,0.6,3c0.4,0.9,1,1.8,1.7,2.5c0.7,0.7,1.6,1.3,2.5,1.7
				c1,0.4,2,0.6,3.2,0.6c1.1,0,2.2-0.2,3.2-0.6c1-0.4,1.8-1,2.5-1.7c0.7-0.7,1.3-1.5,1.7-2.5c0.4-0.9,0.6-2,0.6-3v-0.1
				c0-1.1-0.2-2.1-0.6-3C122.2,11.6,121.7,10.8,120.9,10.1z M115.2,20c-0.6,0-1.1-0.1-1.6-0.3c-0.5-0.2-0.9-0.5-1.3-0.9
				c-0.4-0.4-0.6-0.9-0.8-1.4c-0.2-0.5-0.3-1.1-0.3-1.7v-0.1c0-0.6,0.1-1.1,0.3-1.7c0.2-0.5,0.5-1,0.8-1.3c0.3-0.4,0.8-0.7,1.3-0.9
				c0.5-0.2,1-0.3,1.6-0.3c0.6,0,1.2,0.1,1.6,0.3c0.5,0.2,0.9,0.5,1.3,0.9c0.4,0.4,0.6,0.8,0.8,1.4c0.2,0.5,0.3,1.1,0.3,1.7v0.1
				c0,0.6-0.1,1.1-0.3,1.7c-0.2,0.5-0.5,1-0.8,1.4c-0.4,0.4-0.8,0.7-1.3,0.9C116.4,19.9,115.8,20,115.2,20z"/>
			<path class="st1" d="M146.5,9.3c-0.9-1-2.3-1.5-4-1.5c-1.1,0-2.2,0.3-3,0.7c-0.7,0.4-1.3,0.9-1.9,1.6c-0.4-0.6-0.9-1.2-1.5-1.6
				c-0.8-0.5-1.7-0.8-2.8-0.8c-0.6,0-1.1,0.1-1.6,0.2c-0.5,0.1-0.9,0.3-1.3,0.6c-0.4,0.3-0.7,0.5-1,0.8c-0.1,0.1-0.1,0.2-0.2,0.2
				V8.1h-4v15.1h4v-8.4c0-1,0.3-1.9,0.8-2.4c0.5-0.6,1.2-0.8,2-0.8c0.8,0,1.5,0.3,1.9,0.8c0.5,0.5,0.7,1.3,0.7,2.4v8.5h4v-8.4
				c0-1.1,0.3-1.9,0.8-2.4c0.5-0.5,1.2-0.8,2-0.8c0.8,0,1.5,0.3,1.9,0.8c0.5,0.5,0.7,1.4,0.7,2.4v8.5h4v-9.5
				C147.9,11.8,147.4,10.4,146.5,9.3z"/>
			<g>
				<rect x="21.5" y="8.1" class="st0" width="4" height="15.1"/>
				<path class="st0" d="M25.7,4.6c0-1.2-1-2.2-2.2-2.2s-2.2,1-2.2,2.2c0,1.2,1,2.2,2.2,2.2C24.7,6.8,25.7,5.8,25.7,4.6z"/>
			</g>
			<path class="st1" d="M90,21.3c0-1.2-1-2.2-2.2-2.2c-1.2,0-2.2,1-2.2,2.2c0,1.2,1,2.2,2.2,2.2C89,23.5,90,22.5,90,21.3z"/>
			<path class="st0" d="M18.3,14c-0.4-0.4-0.8-0.8-1.3-1c-0.3-0.2-0.7-0.3-1-0.5l-0.2-0.1l0.2-0.1c0.2-0.1,0.3-0.2,0.5-0.4
				c0.4-0.3,0.7-0.6,1-1c0.3-0.4,0.5-0.8,0.7-1.3c0.2-0.5,0.3-1.1,0.3-1.7V7.8c0-1.4-0.5-2.6-1.4-3.5c-1.2-1.2-3.1-1.9-5.5-1.9H2.1
				v20.8h9.6c1.1,0,2.2-0.1,3.1-0.4c1-0.2,1.8-0.6,2.5-1.1c0.7-0.5,1.2-1.1,1.6-1.8c0.4-0.7,0.6-1.6,0.6-2.5v-0.1
				c0-0.7-0.1-1.4-0.3-1.9C18.9,14.9,18.6,14.4,18.3,14z M6.1,10.8V6.1V6h0.1H11c1.1,0,2,0.2,2.5,0.6c0.6,0.4,0.8,1,0.8,1.7v0.1
				c0,0.9-0.3,1.5-0.9,1.9c-0.7,0.4-1.6,0.7-2.7,0.7H6.2H6.1L6.1,10.8L6.1,10.8z M15.5,17c0,0.9-0.3,1.5-1,1.9
				c-0.7,0.4-1.6,0.7-2.8,0.7H6.2H6v-0.1v-4.9v-0.1h0.1h5.3c1.4,0,2.4,0.2,3,0.7C15.1,15.5,15.5,16.1,15.5,17L15.5,17L15.5,17z"/>
			<path class="st0" d="M67.9,7.8c-1.3-0.1-2.5,0.3-3.4,1c-0.6,0.4-1,1-1.4,1.6V8.1h-4v15.1h4v-5.8c0-0.9,0.1-1.7,0.3-2.4
				c0.2-0.7,0.5-1.2,0.9-1.7c0.4-0.4,0.9-0.8,1.4-1c0.6-0.2,1.2-0.3,1.9-0.3h0.5V7.8L67.9,7.8z"/>
		</g>
	</g>
</g>
</svg>
